<svg xmlns="http://www.w3.org/2000/svg" width="2560" height="976" viewBox="0 0 640 244" font-family="Calibri,-apple-system,BlinkMacSystemFont,'Segoe UI',sans-serif">
<rect width="640" height="244" fill="#ffffff"/>
<text x="52" y="94" font-size="17" font-weight="700" fill="#5e5e58" text-anchor="middle">T</text>
<text x="52" y="119" font-size="17" font-weight="700" fill="#5e5e58" text-anchor="middle">A</text>
<text x="52" y="144" font-size="17" font-weight="700" fill="#5e5e58" text-anchor="middle">B</text>
<g stroke-linecap="round">
<path d="M80 59 H 430" stroke="#3b6d11" stroke-width="2.6"/>
<path d="M80 84 H 430" stroke="#585852" stroke-width="1.4"/>
<path d="M80 109 H 430" stroke="#585852" stroke-width="1.4"/>
<path d="M80 134 H 430" stroke="#585852" stroke-width="1.4"/>
<path d="M80 159 H 430" stroke="#585852" stroke-width="1.4"/>
<path d="M80 184 H 430" stroke="#1a1a18" stroke-width="3"/>
</g>
<g font-size="13" fill="#5e5e58">
<text x="442" y="64" fill="#3b6d11" font-weight="700">mi aguda — la más delgada</text>
<text x="442" y="89">Si</text><text x="442" y="114">Sol</text><text x="442" y="139">Re</text><text x="442" y="164">La</text>
<text x="442" y="189" fill="#1a1a18" font-weight="700">Mi grave — la más gruesa</text>
</g>
<g fill="#ffffff"><rect x="140" y="50" width="20" height="18" rx="3"/><rect x="240" y="125" width="20" height="18" rx="3"/><rect x="340" y="175" width="20" height="18" rx="3"/></g>
<g font-size="15" font-weight="700" fill="#1a1a18" text-anchor="middle" font-family="monospace">
<text x="150" y="64">0</text><text x="250" y="139">3</text><text x="350" y="189">5</text>
</g>
<path d="M118 59 q -20 -18 -30 -22" fill="none" stroke="#3b6d11" stroke-width="2" stroke-linecap="round"/>
<text x="94" y="30" font-size="14" font-weight="700" fill="#3b6d11">la línea de ARRIBA es la cuerda MÁS DELGADA</text>
<text x="320" y="232" font-size="15" fill="#5e5e58" text-anchor="middle" font-weight="600">al principio se siente al revés — inclina la guitarra hacia tu cara y coincide</text>
</svg>
