<svg font-family="-apple-system,'Segoe UI',Roboto,Arial,sans-serif" viewBox="0 0 640 116" xmlns="http://www.w3.org/2000/svg" role="img" aria-label="The natural notes on the high e string, frets 0 to 12: E open, F at fret 1, G at fret 3, A at fret 5, B at fret 7, C at fret 8, D at fret 10, and E again at fret 12">
  <rect width="100%" height="100%" fill="#ffffff"/>
  <g fill="#c9c2b4">
  <circle cx="208.8" cy="82" r="3"/><circle cx="297.5" cy="82" r="3"/><circle cx="386.2" cy="82" r="3"/><circle cx="474.8" cy="82" r="3"/>
  <circle cx="607.8" cy="82" r="3"/><circle cx="607.8" cy="30" r="3"/>
  </g>
  <g stroke="#8a8478" stroke-width="1">
  <path d="M142.3 36 V 76"/><path d="M186.7 36 V 76"/><path d="M231 36 V 76"/><path d="M275.3 36 V 76"/><path d="M319.7 36 V 76"/><path d="M364 36 V 76"/>
  <path d="M408.3 36 V 76"/><path d="M452.7 36 V 76"/><path d="M497 36 V 76"/><path d="M541.3 36 V 76"/><path d="M585.7 36 V 76"/><path d="M630 36 V 76"/>
  </g>
  <rect x="95.5" y="34" width="5" height="44" fill="#2f2c28" rx="1"/>
  <path d="M46 56 H 630" stroke="#3b6d11" stroke-width="2.6" stroke-linecap="round"/>
  <text x="38" y="56" text-anchor="end" dominant-baseline="central" font-size="13" font-weight="600" fill="#3b6d11">e</text>
  <circle cx="72" cy="56" r="12" fill="#ffffff" stroke="#3b6d11" stroke-width="1.8"/>
  <g fill="#eaf3de" stroke="#3b6d11" stroke-width="1.8">
  <circle cx="120.2" cy="56" r="12"/><circle cx="208.8" cy="56" r="12"/><circle cx="297.5" cy="56" r="12"/>
  <circle cx="386.2" cy="56" r="12"/><circle cx="430.5" cy="56" r="12"/><circle cx="519.2" cy="56" r="12"/><circle cx="607.8" cy="56" r="12"/>
  </g>
  <g font-size="13" font-weight="700" fill="#1a1a18" text-anchor="middle" dominant-baseline="central">
  <text x="72" y="56">E</text><text x="120.2" y="56">F</text><text x="208.8" y="56">G</text><text x="297.5" y="56">A</text>
  <text x="386.2" y="56">B</text><text x="430.5" y="56">C</text><text x="519.2" y="56">D</text><text x="607.8" y="56">E</text>
  </g>
  <g font-size="12" fill="#5e5e58" text-anchor="middle">
  <text x="72" y="102">0</text><text x="120.2" y="102">1</text><text x="164.5" y="102">2</text><text x="208.8" y="102">3</text><text x="253.2" y="102">4</text><text x="297.5" y="102">5</text><text x="341.8" y="102">6</text>
  <text x="386.2" y="102">7</text><text x="430.5" y="102">8</text><text x="474.8" y="102">9</text><text x="519.2" y="102">10</text><text x="563.5" y="102">11</text><text x="607.8" y="102">12</text>
  </g>
  </svg>
